<svg width="65" height="74" viewBox="0 0 65 74" fill="none" xmlns="http://www.w3.org/2000/svg">
<path d="M11.167 0C11.5993 -0.00429397 12.3732 0.10528 12.8857 0.244141C13.3968 0.384498 14.1944 0.722277 14.6553 0.99707C15.1161 1.27047 15.7604 1.78822 16.0869 2.14746C16.4133 2.50687 16.889 3.23268 17.6104 4.7168H51.8281L52.5439 5.43262L52.543 59.4795L38.7256 73.2959H0.71582L0 72.5801V5.43262L0.350586 5.07422C0.693984 4.72512 0.754359 4.7168 4.86816 4.7168L5.29785 3.78613C5.53409 3.27375 6.04027 2.51726 6.42383 2.10352C6.80884 1.68997 7.50054 1.14616 7.96289 0.895508C8.42674 0.643567 9.15901 0.341038 9.59277 0.223633C10.025 0.106311 10.7332 0.00579173 11.167 0ZM56.8281 4.71387C57.8615 4.71101 58.1084 4.7568 58.3789 5C58.5562 5.15899 58.7347 5.49887 58.7764 5.75488C58.8192 6.04181 58.8354 21.2107 58.7725 72.6045L57.9854 73.2959H50.8975C45.5171 73.2959 43.7265 73.253 43.4531 73.1172C43.2573 73.0185 43.0326 72.7936 42.9521 72.6162C42.8736 72.4389 42.8088 72.1653 42.8086 72.0078C42.8089 71.8502 42.967 71.5597 43.5117 71.0049H56.4102V7.00684L56.0879 7.01172C55.9105 7.01458 55.5883 6.88577 55.3721 6.72559C55.0803 6.51098 54.9713 6.29668 54.9512 5.90625C54.9312 5.51866 55.0129 5.29152 55.2617 5.04688C55.5607 4.75369 55.739 4.71673 56.8281 4.71387ZM63.1035 4.7207C64.1756 4.71641 64.3173 4.74996 65 5.43262V72.5801L64.6494 72.9385C64.3362 73.2573 64.1794 73.2959 63.2178 73.2959C62.624 73.2959 61.9759 73.2159 61.7764 73.1172C61.579 73.0184 61.3493 72.7775 61.2676 72.5801C61.1819 72.3711 61.1683 72.0483 61.2354 71.8066C61.2985 71.5779 61.4785 71.3032 61.6357 71.1973C61.7933 71.09 62.1003 71.0035 62.71 71.0049V39.0059C62.71 7.10357 62.7078 7.00684 62.4229 7.00684C62.2654 7.0067 61.9752 6.92675 61.7764 6.82812C61.5789 6.72931 61.3452 6.45579 61.2578 6.21973C61.1363 5.88938 61.1453 5.69543 61.2969 5.37793C61.4041 5.15227 61.5883 4.91344 61.707 4.8457C61.825 4.77989 62.4539 4.72356 63.1035 4.7207ZM2.29102 71.0049H37.082L37.1533 58.5566L37.8047 57.9053L50.2539 57.833V7.00684H17.8965C17.8249 16.0932 17.8243 16.0988 17.458 16.8857C17.2561 17.3194 16.8053 17.9497 16.4561 18.2861C16.0896 18.6396 15.4884 19.0249 15.0332 19.1953C14.4392 19.4186 14.0167 19.4769 13.3154 19.4326C12.7328 19.3954 12.144 19.2525 11.7402 19.0479C11.3868 18.8689 10.8697 18.507 10.5947 18.2451C10.3199 17.9817 9.93149 17.4545 9.73535 17.0752C9.39052 16.4112 9.37647 16.2679 9.33496 13.3066C9.30349 10.9831 9.33742 10.1486 9.47754 9.90332C9.5807 9.72455 9.84166 9.51586 10.0576 9.43848C10.3166 9.34692 10.5749 9.347 10.8096 9.44141C11.007 9.5202 11.2649 9.72889 11.3838 9.90625C11.5569 10.1655 11.5986 10.7581 11.5986 12.9131C11.5972 15.0136 11.6442 15.6908 11.8115 16.0273C11.9305 16.2634 12.2039 16.5887 12.4199 16.749C12.636 16.9092 13.007 17.0777 13.2432 17.125C13.528 17.1808 13.8894 17.1091 14.3174 16.9102C14.6879 16.7384 15.0672 16.4262 15.2119 16.1758C15.435 15.7878 15.4629 15.2694 15.4629 11.374V7.00684H2.29102V71.0049ZM39.5156 69.2158C46.3652 62.3662 48.3754 60.3399 48.3926 60.3027C48.3657 60.2829 46.3785 60.2676 43.9541 60.2676H39.5156V69.2158ZM25.9834 51.8506C40.1392 51.8506 42.1772 51.8773 42.4609 52.0703C42.6392 52.1917 42.8486 52.4569 42.9277 52.6572C43.0235 52.9008 43.0235 53.1687 42.9277 53.4609C42.8487 53.702 42.6552 53.9651 42.4971 54.0459C42.3101 54.141 36.5284 54.1924 26.0303 54.1924C17.138 54.1924 9.75628 54.1429 9.61621 54.083C9.48685 54.023 9.29243 53.792 9.18457 53.5713C9.07676 53.3505 8.99281 53.0647 9 52.9375C9.00606 52.8116 9.1944 52.5145 9.41992 52.2793L9.83008 51.8525L25.9834 51.8506ZM26.0303 44.6904C41.5571 44.6758 42.1505 44.686 42.4971 44.9492C42.6939 45.0999 42.9049 45.3984 42.9639 45.6133C43.0313 45.8574 42.9981 46.1529 42.876 46.4043C42.7682 46.6248 42.5747 46.8557 42.4453 46.916C42.3159 46.976 34.9278 47.0254 26.0303 47.0254C17.1381 47.0254 9.74954 46.9686 9.60059 46.8984C9.46258 46.8282 9.25923 46.5492 9.15137 46.2773C9.00191 45.9017 8.99159 45.6948 9.1123 45.417C9.19865 45.2167 9.41796 44.9739 9.59766 44.8789C9.84569 44.7489 13.9475 44.7021 26.0303 44.6904ZM26.0303 37.5234C41.5571 37.5088 42.1505 37.519 42.4971 37.7822C42.6939 37.9329 42.9048 38.2314 42.9639 38.4463C43.0314 38.6905 42.9981 38.9858 42.876 39.2373C42.7683 39.4578 42.5747 39.6886 42.4453 39.749C42.3159 39.809 34.9278 39.8594 26.0303 39.8594C17.1357 39.8594 9.74556 39.8016 9.60059 39.7314C9.46254 39.6612 9.2592 39.3823 9.15137 39.1104C9.00188 38.7346 8.99153 38.5278 9.1123 38.25C9.19869 38.0497 9.41799 37.8069 9.59766 37.7119C9.84695 37.5819 13.9495 37.5351 26.0303 37.5234ZM26.0303 30.3613C40.1548 30.3511 42.1772 30.3773 42.4609 30.5703C42.639 30.6916 42.8484 30.956 42.9277 31.1562C43.0236 31.3999 43.0235 31.6685 42.9277 31.9609C42.8487 32.202 42.6552 32.4651 42.4971 32.5459C42.3101 32.641 36.5284 32.6924 26.0303 32.6924C17.1409 32.6924 9.75403 32.6355 9.60059 32.5654C9.46253 32.4951 9.2592 32.2153 9.15137 31.9434C9.00205 31.5679 8.99175 31.3615 9.1123 31.084C9.19865 30.8836 9.41796 30.64 9.59766 30.5449C9.84818 30.415 13.9443 30.3701 26.0303 30.3613ZM26.0303 23.1943C40.1548 23.1841 42.1772 23.2103 42.4609 23.4033C42.6392 23.5247 42.8486 23.7899 42.9277 23.9902C43.0236 24.2339 43.0235 24.5025 42.9277 24.7949C42.8486 25.036 42.6551 25.2993 42.4971 25.3799C42.3101 25.475 36.5284 25.5254 26.0303 25.5254C17.1386 25.5254 9.75033 25.4686 9.60059 25.3984C9.46259 25.3282 9.25923 25.0492 9.15137 24.7773C9.00192 24.4017 8.99161 24.1947 9.1123 23.917C9.19865 23.7167 9.41796 23.4739 9.59766 23.3789C9.84543 23.2489 13.9399 23.2031 26.0303 23.1943ZM11.002 2.19336C10.8743 2.20578 10.4589 2.28726 10.0791 2.37598C9.69925 2.46471 9.10982 2.72418 8.77148 2.95312C8.43315 3.18216 7.89541 3.71986 7.57715 4.14746C7.25727 4.57517 6.99846 4.98681 7 5.05957C7.00433 5.13226 8.80451 5.19238 11.002 5.19238C13.5653 5.19238 15 5.12823 15 5.01465C14.9996 4.9166 14.8446 4.58367 14.6543 4.27539C14.4636 3.96659 14.0142 3.48682 13.6543 3.20996C13.2944 2.93312 12.6021 2.58674 12.1162 2.43945C11.6309 2.29413 11.1302 2.18298 11.002 2.19336Z" fill="#B00000"/>
</svg>
